<mxfile host="app.diagrams.net" modified="2022-07-19T09:11:10.619Z" agent="5.0 (Windows NT 10.0; Win64; x64) AppleWebKit/537.36 (KHTML, like Gecko) Chrome/103.0.0.0 Safari/537.36" etag="8ZNNr7NiWCw7Y2SA1j_Q" version="20.1.1" type="github">
  <diagram id="fxjwwGdQiQSLBwcHJHyx" name="Page-1">
    <mxGraphModel dx="1422" dy="729" grid="1" gridSize="10" guides="1" tooltips="1" connect="1" arrows="1" fold="1" page="1" pageScale="1" pageWidth="1169" pageHeight="827" math="0" shadow="0">
      <root>
        <mxCell id="0" />
        <mxCell id="1" parent="0" />
        <mxCell id="0iOD0FsYWLCd9YlcvLTe-19" style="edgeStyle=orthogonalEdgeStyle;rounded=0;orthogonalLoop=1;jettySize=auto;html=1;exitX=0.5;exitY=1;exitDx=0;exitDy=0;" parent="1" source="0iOD0FsYWLCd9YlcvLTe-1" target="0iOD0FsYWLCd9YlcvLTe-2" edge="1">
          <mxGeometry relative="1" as="geometry" />
        </mxCell>
        <mxCell id="0iOD0FsYWLCd9YlcvLTe-1" value="Inicio" style="ellipse;whiteSpace=wrap;html=1;fillColor=#fff2cc;strokeColor=#d6b656;" parent="1" vertex="1">
          <mxGeometry x="470" y="30" width="120" height="50" as="geometry" />
        </mxCell>
        <mxCell id="0iOD0FsYWLCd9YlcvLTe-21" style="edgeStyle=orthogonalEdgeStyle;rounded=0;orthogonalLoop=1;jettySize=auto;html=1;exitX=0.5;exitY=1;exitDx=0;exitDy=0;" parent="1" source="0iOD0FsYWLCd9YlcvLTe-2" target="0iOD0FsYWLCd9YlcvLTe-3" edge="1">
          <mxGeometry relative="1" as="geometry" />
        </mxCell>
        <mxCell id="0iOD0FsYWLCd9YlcvLTe-2" value="Chegada do material" style="rounded=0;whiteSpace=wrap;html=1;fillColor=#d5e8d4;strokeColor=#82b366;" parent="1" vertex="1">
          <mxGeometry x="470" y="130" width="120" height="60" as="geometry" />
        </mxCell>
        <mxCell id="0iOD0FsYWLCd9YlcvLTe-22" style="edgeStyle=orthogonalEdgeStyle;rounded=0;orthogonalLoop=1;jettySize=auto;html=1;exitX=0;exitY=0.5;exitDx=0;exitDy=0;" parent="1" source="0iOD0FsYWLCd9YlcvLTe-3" target="0iOD0FsYWLCd9YlcvLTe-18" edge="1">
          <mxGeometry relative="1" as="geometry" />
        </mxCell>
        <mxCell id="0iOD0FsYWLCd9YlcvLTe-49" style="edgeStyle=orthogonalEdgeStyle;rounded=0;orthogonalLoop=1;jettySize=auto;html=1;exitX=1;exitY=0.5;exitDx=0;exitDy=0;" parent="1" source="0iOD0FsYWLCd9YlcvLTe-3" target="0iOD0FsYWLCd9YlcvLTe-10" edge="1">
          <mxGeometry relative="1" as="geometry" />
        </mxCell>
        <mxCell id="0iOD0FsYWLCd9YlcvLTe-3" value="O material é um metal?" style="rhombus;whiteSpace=wrap;html=1;fillColor=#e1d5e7;strokeColor=#9673a6;" parent="1" vertex="1">
          <mxGeometry x="490" y="230" width="80" height="80" as="geometry" />
        </mxCell>
        <mxCell id="0iOD0FsYWLCd9YlcvLTe-24" style="edgeStyle=orthogonalEdgeStyle;rounded=0;orthogonalLoop=1;jettySize=auto;html=1;exitX=0.5;exitY=1;exitDx=0;exitDy=0;" parent="1" source="0iOD0FsYWLCd9YlcvLTe-4" target="0iOD0FsYWLCd9YlcvLTe-7" edge="1">
          <mxGeometry relative="1" as="geometry" />
        </mxCell>
        <mxCell id="0iOD0FsYWLCd9YlcvLTe-4" value="É pesado o material na balança" style="rounded=0;whiteSpace=wrap;html=1;fillColor=#d5e8d4;strokeColor=#82b366;" parent="1" vertex="1">
          <mxGeometry x="160" y="240" width="120" height="60" as="geometry" />
        </mxCell>
        <mxCell id="0iOD0FsYWLCd9YlcvLTe-26" style="edgeStyle=orthogonalEdgeStyle;rounded=0;orthogonalLoop=1;jettySize=auto;html=1;exitX=0.5;exitY=1;exitDx=0;exitDy=0;entryX=0.5;entryY=0;entryDx=0;entryDy=0;" parent="1" source="0iOD0FsYWLCd9YlcvLTe-7" target="0iOD0FsYWLCd9YlcvLTe-8" edge="1">
          <mxGeometry relative="1" as="geometry" />
        </mxCell>
        <mxCell id="0iOD0FsYWLCd9YlcvLTe-7" value="Realizar o calculo da diferença do peso que vem na folha do fornecedor e o peso final" style="rounded=0;whiteSpace=wrap;html=1;fillColor=#d5e8d4;strokeColor=#82b366;" parent="1" vertex="1">
          <mxGeometry x="155" y="360" width="130" height="70" as="geometry" />
        </mxCell>
        <mxCell id="0iOD0FsYWLCd9YlcvLTe-27" style="edgeStyle=orthogonalEdgeStyle;rounded=0;orthogonalLoop=1;jettySize=auto;html=1;exitX=0.5;exitY=1;exitDx=0;exitDy=0;" parent="1" source="0iOD0FsYWLCd9YlcvLTe-8" target="0iOD0FsYWLCd9YlcvLTe-9" edge="1">
          <mxGeometry relative="1" as="geometry" />
        </mxCell>
        <mxCell id="0iOD0FsYWLCd9YlcvLTe-28" style="edgeStyle=orthogonalEdgeStyle;rounded=0;orthogonalLoop=1;jettySize=auto;html=1;exitX=1;exitY=0.5;exitDx=0;exitDy=0;entryX=0;entryY=0.5;entryDx=0;entryDy=0;" parent="1" source="0iOD0FsYWLCd9YlcvLTe-8" target="0iOD0FsYWLCd9YlcvLTe-20" edge="1">
          <mxGeometry relative="1" as="geometry" />
        </mxCell>
        <mxCell id="0iOD0FsYWLCd9YlcvLTe-8" value="O resultado é favorável?" style="rhombus;whiteSpace=wrap;html=1;fillColor=#e1d5e7;strokeColor=#9673a6;" parent="1" vertex="1">
          <mxGeometry x="180" y="485" width="80" height="80" as="geometry" />
        </mxCell>
        <mxCell id="0iOD0FsYWLCd9YlcvLTe-9" value="Alertar a chefia" style="rounded=0;whiteSpace=wrap;html=1;fillColor=#d5e8d4;strokeColor=#82b366;" parent="1" vertex="1">
          <mxGeometry x="160" y="610" width="120" height="60" as="geometry" />
        </mxCell>
        <mxCell id="0iOD0FsYWLCd9YlcvLTe-34" style="edgeStyle=orthogonalEdgeStyle;rounded=0;orthogonalLoop=1;jettySize=auto;html=1;exitX=0.5;exitY=1;exitDx=0;exitDy=0;" parent="1" source="0iOD0FsYWLCd9YlcvLTe-10" target="0iOD0FsYWLCd9YlcvLTe-11" edge="1">
          <mxGeometry relative="1" as="geometry" />
        </mxCell>
        <mxCell id="0iOD0FsYWLCd9YlcvLTe-10" value="Dar entrada em SAP" style="rounded=0;whiteSpace=wrap;html=1;fillColor=#d5e8d4;strokeColor=#82b366;" parent="1" vertex="1">
          <mxGeometry x="680" y="240" width="120" height="60" as="geometry" />
        </mxCell>
        <mxCell id="kcw-QOEfAbYv8PazVu3s-1" style="edgeStyle=orthogonalEdgeStyle;rounded=0;orthogonalLoop=1;jettySize=auto;html=1;exitX=0.5;exitY=1;exitDx=0;exitDy=0;" edge="1" parent="1" source="0iOD0FsYWLCd9YlcvLTe-11" target="0iOD0FsYWLCd9YlcvLTe-14">
          <mxGeometry relative="1" as="geometry" />
        </mxCell>
        <mxCell id="0iOD0FsYWLCd9YlcvLTe-11" value="Enviar folha de receção com dos dados preenchidos para o laboratório de qualidade" style="rounded=0;whiteSpace=wrap;html=1;fillColor=#d5e8d4;strokeColor=#82b366;" parent="1" vertex="1">
          <mxGeometry x="675" y="414" width="130" height="70" as="geometry" />
        </mxCell>
        <mxCell id="0iOD0FsYWLCd9YlcvLTe-37" style="edgeStyle=orthogonalEdgeStyle;rounded=0;orthogonalLoop=1;jettySize=auto;html=1;exitX=0.5;exitY=1;exitDx=0;exitDy=0;entryX=0.5;entryY=0;entryDx=0;entryDy=0;" parent="1" source="0iOD0FsYWLCd9YlcvLTe-14" target="0iOD0FsYWLCd9YlcvLTe-15" edge="1">
          <mxGeometry relative="1" as="geometry" />
        </mxCell>
        <mxCell id="0iOD0FsYWLCd9YlcvLTe-14" value="O laboratório de qualidade verifica se o material está conforme ou não conforme" style="rounded=0;whiteSpace=wrap;html=1;fillColor=#d5e8d4;strokeColor=#82b366;" parent="1" vertex="1">
          <mxGeometry x="675" y="625" width="130" height="70" as="geometry" />
        </mxCell>
        <mxCell id="0iOD0FsYWLCd9YlcvLTe-38" style="edgeStyle=orthogonalEdgeStyle;rounded=0;orthogonalLoop=1;jettySize=auto;html=1;exitX=0.5;exitY=1;exitDx=0;exitDy=0;entryX=0.5;entryY=0;entryDx=0;entryDy=0;" parent="1" source="0iOD0FsYWLCd9YlcvLTe-15" target="0iOD0FsYWLCd9YlcvLTe-17" edge="1">
          <mxGeometry relative="1" as="geometry" />
        </mxCell>
        <mxCell id="0iOD0FsYWLCd9YlcvLTe-39" style="edgeStyle=orthogonalEdgeStyle;rounded=0;orthogonalLoop=1;jettySize=auto;html=1;exitX=1;exitY=0.5;exitDx=0;exitDy=0;entryX=0;entryY=0.5;entryDx=0;entryDy=0;" parent="1" source="0iOD0FsYWLCd9YlcvLTe-15" target="0iOD0FsYWLCd9YlcvLTe-16" edge="1">
          <mxGeometry relative="1" as="geometry" />
        </mxCell>
        <mxCell id="0iOD0FsYWLCd9YlcvLTe-15" value="O material está ok?" style="rhombus;whiteSpace=wrap;html=1;fillColor=#e1d5e7;strokeColor=#9673a6;" parent="1" vertex="1">
          <mxGeometry x="700" y="820" width="80" height="80" as="geometry" />
        </mxCell>
        <mxCell id="0iOD0FsYWLCd9YlcvLTe-16" value="Abertura de uma folha de produto não conforme" style="rounded=0;whiteSpace=wrap;html=1;fillColor=#d5e8d4;strokeColor=#82b366;" parent="1" vertex="1">
          <mxGeometry x="890" y="830" width="120" height="60" as="geometry" />
        </mxCell>
        <mxCell id="0iOD0FsYWLCd9YlcvLTe-17" value="Fim" style="ellipse;whiteSpace=wrap;html=1;fillColor=#f8cecc;strokeColor=#b85450;" parent="1" vertex="1">
          <mxGeometry x="680" y="940" width="120" height="50" as="geometry" />
        </mxCell>
        <mxCell id="0iOD0FsYWLCd9YlcvLTe-23" style="edgeStyle=orthogonalEdgeStyle;rounded=0;orthogonalLoop=1;jettySize=auto;html=1;exitX=0;exitY=0.5;exitDx=0;exitDy=0;entryX=1;entryY=0.5;entryDx=0;entryDy=0;" parent="1" source="0iOD0FsYWLCd9YlcvLTe-18" target="0iOD0FsYWLCd9YlcvLTe-4" edge="1">
          <mxGeometry relative="1" as="geometry" />
        </mxCell>
        <mxCell id="0iOD0FsYWLCd9YlcvLTe-29" style="edgeStyle=orthogonalEdgeStyle;rounded=0;orthogonalLoop=1;jettySize=auto;html=1;exitX=0.5;exitY=1;exitDx=0;exitDy=0;" parent="1" source="0iOD0FsYWLCd9YlcvLTe-18" target="0iOD0FsYWLCd9YlcvLTe-20" edge="1">
          <mxGeometry relative="1" as="geometry" />
        </mxCell>
        <mxCell id="0iOD0FsYWLCd9YlcvLTe-18" value="O material é cobre ou aluminio?" style="rhombus;whiteSpace=wrap;html=1;fillColor=#e1d5e7;strokeColor=#9673a6;" parent="1" vertex="1">
          <mxGeometry x="340" y="230" width="80" height="80" as="geometry" />
        </mxCell>
        <mxCell id="0iOD0FsYWLCd9YlcvLTe-31" style="edgeStyle=orthogonalEdgeStyle;rounded=0;orthogonalLoop=1;jettySize=auto;html=1;exitX=0.5;exitY=1;exitDx=0;exitDy=0;entryX=0.5;entryY=0;entryDx=0;entryDy=0;" parent="1" source="0iOD0FsYWLCd9YlcvLTe-20" target="0iOD0FsYWLCd9YlcvLTe-30" edge="1">
          <mxGeometry relative="1" as="geometry" />
        </mxCell>
        <mxCell id="0iOD0FsYWLCd9YlcvLTe-20" value="Enviar folha digitalizada que dá constância de que o material foi entregue (para compras)" style="rounded=0;whiteSpace=wrap;html=1;fillColor=#d5e8d4;strokeColor=#82b366;" parent="1" vertex="1">
          <mxGeometry x="315" y="490" width="130" height="70" as="geometry" />
        </mxCell>
        <mxCell id="0iOD0FsYWLCd9YlcvLTe-30" value="" style="ellipse;shape=doubleEllipse;whiteSpace=wrap;html=1;aspect=fixed;fillColor=#fad9d5;strokeColor=#ae4132;" parent="1" vertex="1">
          <mxGeometry x="365" y="625" width="30" height="30" as="geometry" />
        </mxCell>
        <mxCell id="0iOD0FsYWLCd9YlcvLTe-33" style="edgeStyle=orthogonalEdgeStyle;rounded=0;orthogonalLoop=1;jettySize=auto;html=1;exitX=0.5;exitY=1;exitDx=0;exitDy=0;" parent="1" source="0iOD0FsYWLCd9YlcvLTe-32" target="0iOD0FsYWLCd9YlcvLTe-10" edge="1">
          <mxGeometry relative="1" as="geometry" />
        </mxCell>
        <mxCell id="0iOD0FsYWLCd9YlcvLTe-32" value="" style="ellipse;shape=doubleEllipse;whiteSpace=wrap;html=1;aspect=fixed;fillColor=#fad9d5;strokeColor=#ae4132;" parent="1" vertex="1">
          <mxGeometry x="725" y="140" width="30" height="30" as="geometry" />
        </mxCell>
        <mxCell id="0iOD0FsYWLCd9YlcvLTe-44" value="A" style="text;html=1;strokeColor=none;fillColor=none;align=center;verticalAlign=middle;whiteSpace=wrap;rounded=0;" parent="1" vertex="1">
          <mxGeometry x="350" y="660" width="60" height="30" as="geometry" />
        </mxCell>
        <mxCell id="0iOD0FsYWLCd9YlcvLTe-45" value="A" style="text;html=1;strokeColor=none;fillColor=none;align=center;verticalAlign=middle;whiteSpace=wrap;rounded=0;" parent="1" vertex="1">
          <mxGeometry x="710" y="110" width="60" height="30" as="geometry" />
        </mxCell>
        <mxCell id="0iOD0FsYWLCd9YlcvLTe-48" value="N" style="text;html=1;strokeColor=none;fillColor=none;align=center;verticalAlign=middle;whiteSpace=wrap;rounded=0;" parent="1" vertex="1">
          <mxGeometry x="555" y="240" width="60" height="30" as="geometry" />
        </mxCell>
        <mxCell id="0iOD0FsYWLCd9YlcvLTe-50" value="N" style="text;html=1;strokeColor=none;fillColor=none;align=center;verticalAlign=middle;whiteSpace=wrap;rounded=0;" parent="1" vertex="1">
          <mxGeometry x="335" y="310" width="60" height="30" as="geometry" />
        </mxCell>
        <mxCell id="0iOD0FsYWLCd9YlcvLTe-51" value="N" style="text;html=1;strokeColor=none;fillColor=none;align=center;verticalAlign=middle;whiteSpace=wrap;rounded=0;" parent="1" vertex="1">
          <mxGeometry x="180" y="570" width="60" height="30" as="geometry" />
        </mxCell>
        <mxCell id="0iOD0FsYWLCd9YlcvLTe-53" value="N" style="text;html=1;strokeColor=none;fillColor=none;align=center;verticalAlign=middle;whiteSpace=wrap;rounded=0;" parent="1" vertex="1">
          <mxGeometry x="760" y="830" width="60" height="30" as="geometry" />
        </mxCell>
        <mxCell id="0iOD0FsYWLCd9YlcvLTe-54" value="S" style="text;html=1;strokeColor=none;fillColor=none;align=center;verticalAlign=middle;whiteSpace=wrap;rounded=0;" parent="1" vertex="1">
          <mxGeometry x="445" y="240" width="60" height="30" as="geometry" />
        </mxCell>
        <mxCell id="0iOD0FsYWLCd9YlcvLTe-55" value="S" style="text;html=1;strokeColor=none;fillColor=none;align=center;verticalAlign=middle;whiteSpace=wrap;rounded=0;" parent="1" vertex="1">
          <mxGeometry x="290" y="240" width="60" height="30" as="geometry" />
        </mxCell>
        <mxCell id="0iOD0FsYWLCd9YlcvLTe-56" value="S" style="text;html=1;strokeColor=none;fillColor=none;align=center;verticalAlign=middle;whiteSpace=wrap;rounded=0;" parent="1" vertex="1">
          <mxGeometry x="240" y="500" width="60" height="30" as="geometry" />
        </mxCell>
        <mxCell id="0iOD0FsYWLCd9YlcvLTe-58" value="S" style="text;html=1;strokeColor=none;fillColor=none;align=center;verticalAlign=middle;whiteSpace=wrap;rounded=0;" parent="1" vertex="1">
          <mxGeometry x="720" y="900" width="60" height="30" as="geometry" />
        </mxCell>
      </root>
    </mxGraphModel>
  </diagram>
</mxfile>
